<svg id="Layer_1" data-name="Layer 1" xmlns="http://www.w3.org/2000/svg" viewBox="0 0 71 71"><defs><style>.cls-1{fill:#e97b98;}.cls-2{fill:#fff;}</style></defs><title>icon</title><rect class="cls-1" x="-6.16" y="-6.16" width="83.33" height="83.33"/><path class="cls-2" d="M20.79,53.9a8.52,8.52,0,0,1-2.09-6,26.27,26.27,0,0,1,.63-5.18l3-13.84c.07-.26.22-1,.46-2.13a18.09,18.09,0,0,0,.37-3.78,2.78,2.78,0,0,0-.46-1.74,1.5,1.5,0,0,0-1.24-.58A6.14,6.14,0,0,0,18.07,22,19.5,19.5,0,0,0,14,26.23a1.9,1.9,0,0,1-1.5.92,1.49,1.49,0,0,1-1.19-.65A2.35,2.35,0,0,1,10.81,25a6,6,0,0,1,1.36-3.39q4.94-6.78,11.57-6.77a6,6,0,0,1,4.62,1.79A7.43,7.43,0,0,1,30,21.92a27.81,27.81,0,0,1-.34,4.55q-.33,2.09-1.16,5.67l-2,8.86c-.07.29-.18.8-.34,1.55s-.29,1.44-.39,2.1a13.14,13.14,0,0,0-.15,2,3.44,3.44,0,0,0,.88,2.47A3.24,3.24,0,0,0,29,50q2.89,0,5.88-3.1c2-2.06,3.82-5.4,5.52-10a83.83,83.83,0,0,0,3.94-17.65,8.88,8.88,0,0,1,1-3.44,2.89,2.89,0,0,1,2.54-1,3,3,0,0,1,2.52,1,5.25,5.25,0,0,1,.82,3.29,24.54,24.54,0,0,1-.31,3.44C50.71,24,50.4,26,50,28.55Q48.66,36,47.89,42.16a35.08,35.08,0,0,0-.38,4.16,4.56,4.56,0,0,0,.89,3,3,3,0,0,0,2.4,1,5.39,5.39,0,0,0,3.12-1.07,20.61,20.61,0,0,0,3.61-3.53,1.71,1.71,0,0,1,1.31-.68,1.12,1.12,0,0,1,1,.58,3,3,0,0,1,.36,1.6,4.58,4.58,0,0,1-.92,3,18.62,18.62,0,0,1-5,4.45,10.27,10.27,0,0,1-5.18,1.41A8.5,8.5,0,0,1,43,54.09a7.1,7.1,0,0,1-2.13-5.35,60.65,60.65,0,0,1,.77-7.16q-2.41,7.11-6.12,10.84a11.69,11.69,0,0,1-8.55,3.73Q22.87,56.15,20.79,53.9Z"/></svg>